<svg width="512" height="512" viewBox="0 0 512 512" fill="none" xmlns="http://www.w3.org/2000/svg">
<rect width="512" height="512" rx="100" fill="black"/>
<path d="M194.686 308.641C194.451 313.973 187.977 317.225 175.262 318.396C174.793 319.334 174.793 320.711 175.262 322.527C186.336 322.176 194.188 322 198.816 322C206.141 322 214.49 322.176 223.865 322.527C224.334 320.711 224.334 319.334 223.865 318.396C211.033 317.225 204.559 313.973 204.441 308.641C203.855 290.418 203.562 274.539 203.562 261.004C203.562 242.488 203.797 226.111 204.266 211.873H205.145L248.035 319.803H248.914L288.992 213.982H289.783C290.369 231.619 290.662 247.293 290.662 261.004C290.662 280.047 290.369 296.307 289.783 309.783C289.666 311.307 288.963 312.625 287.674 313.738C286.443 314.793 284.598 315.643 282.137 316.287C279.676 316.873 277.596 317.283 275.896 317.518C274.197 317.752 272.029 317.986 269.393 318.221C268.924 319.158 268.924 320.535 269.393 322.352C279.354 322 289.549 321.824 299.979 321.824C312.459 321.824 324.471 322 336.014 322.352C336.482 321.297 336.482 319.92 336.014 318.221C316.561 317.049 306.775 314.295 306.658 309.959C305.955 291.561 305.604 273.074 305.604 254.5C305.604 236.512 305.838 220.135 306.307 205.369C306.424 201.033 316.209 198.279 335.662 197.107C336.131 195.408 336.131 194.031 335.662 192.977C324.119 193.328 308.768 193.504 289.607 193.504L252.166 291.238L216.131 193.504C201.834 193.504 189.178 193.27 178.162 192.801C177.576 193.973 177.576 195.086 178.162 196.141C185.135 197.137 189.676 198.602 191.785 200.535C193.953 202.41 195.096 206.775 195.213 213.631C195.623 228.045 195.828 241.668 195.828 254.5C195.828 272.254 195.447 290.301 194.686 308.641ZM191.082 308.641C191.844 290.184 192.225 272.137 192.225 254.5C192.225 241.668 192.02 228.045 191.609 213.631C191.492 208.24 190.438 204.783 188.445 203.26C186.512 201.678 182.293 200.447 175.789 199.568C174.148 195.994 174.207 192.479 175.965 189.021C189.441 189.607 206.961 189.9 228.523 189.9L257.352 266.893L287.059 189.9C302.762 189.9 320.105 189.666 339.09 189.197C340.262 193.006 340.379 196.785 339.441 200.535C326.492 201.824 319.959 203.553 319.842 205.721C319.314 216.736 319.051 232.996 319.051 254.5C319.051 276.707 319.432 295.076 320.193 309.607C320.311 311.775 326.844 313.504 339.793 314.793C340.73 318.543 340.613 322.322 339.441 326.131C320.457 325.662 309.412 325.428 306.307 325.428C301.619 325.428 288.494 325.662 266.932 326.131C265.467 322.029 265.467 318.25 266.932 314.793C279.646 313.504 286.062 311.834 286.18 309.783C286.766 296.072 287.059 279.812 287.059 261.004C287.059 246.355 287 235.604 286.883 228.748L251.375 323.406H245.486L207.166 226.814V261.004C207.166 274.539 207.459 290.418 208.045 308.641C208.162 311.805 214.578 313.914 227.293 314.969C228.758 318.484 228.758 322.264 227.293 326.307C209.773 325.604 191.58 325.604 172.713 326.307C171.307 322.264 171.307 318.484 172.713 314.969C184.842 313.797 190.965 311.688 191.082 308.641Z" fill="white"/>
</svg>
